<svg xmlns="http://www.w3.org/2000/svg" width="27.37" height="31.564" viewBox="0 0 27.37 31.564">
  <g id="그룹_17" data-name="그룹 17" transform="translate(-3.847 -3)">
    <path id="패스_92" data-name="패스 92" d="M4.443,19.487c.063-.57.094-.855.133-1.059a5,5,0,0,1,4.987-4.151c.207,0,.531.022,1.178.07,2.01.147,4.273.268,6.3.268,2.113,0,4.456-.132,6.492-.288.624-.048.936-.072,1.139-.071A4.992,4.992,0,0,1,29.6,18.041c.053.2.1.467.2,1.008.111.6.167.9.189,1.138a5.118,5.118,0,0,1-4.612,5.552c-.242.023-.546.023-1.153.023H10.068c-.553,0-.829,0-1.055-.02a5.118,5.118,0,0,1-4.665-5.2C4.353,20.311,4.383,20.036,4.443,19.487Z" transform="translate(0.353 7.949)" fill="#6d6ec7"/>
    <path id="패스_93" data-name="패스 93" d="M25.02,15.462c-.16,0-.426.019-1.071.069-2.047.157-4.414.29-6.558.29-2.054,0-4.341-.122-6.36-.271-.669-.049-.946-.069-1.109-.067a4.148,4.148,0,0,0-4.156,3.459c-.031.16-.058.4-.123.991-.062.568-.086.8-.09.975a4.265,4.265,0,0,0,3.887,4.337c.179.016.408.017.979.017H24.578c.628,0,.881,0,1.072-.019a4.265,4.265,0,0,0,3.843-4.627c-.017-.192-.062-.44-.178-1.058-.1-.56-.148-.788-.189-.942A4.14,4.14,0,0,0,25.02,15.462Zm-1.137-1.637c.563-.043.9-.069,1.142-.069a5.845,5.845,0,0,1,5.749,4.415c.062.229.118.53.209,1.02L31,19.3c.1.542.164.877.189,1.161a5.972,5.972,0,0,1-5.381,6.477c-.283.027-.624.027-1.176.027H10.368c-.5,0-.813,0-1.078-.023a5.972,5.972,0,0,1-5.442-6.072c.005-.265.039-.574.094-1.074l.006-.052.006-.057c.057-.516.091-.832.137-1.07A5.853,5.853,0,0,1,9.91,13.777c.242,0,.6.024,1.179.067l.067,0c2,.147,4.24.266,6.235.266,2.082,0,4.4-.13,6.427-.285Z" transform="translate(0 7.596)" fill="#6d6ec7" fill-rule="evenodd"/>
    <path id="패스_94" data-name="패스 94" d="M8,9.825a6.825,6.825,0,0,1,13.649,0V10.8a5.85,5.85,0,0,1-5.85,5.85H13.85A5.85,5.85,0,0,1,8,10.8Z" transform="translate(2.933)" fill="#6d6ec7"/>
  </g>
</svg>