<svg xmlns="http://www.w3.org/2000/svg" width="25.448" height="28.278" viewBox="0 0 25.448 28.278">
  <g id="그룹_18" data-name="그룹 18" transform="translate(-4.074 -2.221)">
    <path id="패스_96" data-name="패스 96" d="M12.263,27.114,27.255,9.271A.732.732,0,0,0,27.3,8.32a20.2,20.2,0,0,0-2.1-2.174A21.6,21.6,0,0,0,22.6,4.38a.744.744,0,0,0-.948.207L6.671,22.416a2.19,2.19,0,0,0-.53,1.425c.009,1.072.045,2.485.148,3.673.03.345.064.651.1.912.264-.008.571-.028.916-.058,1.188-.1,2.586-.312,3.644-.488A2.19,2.19,0,0,0,12.263,27.114ZM23.658,2.606a2.809,2.809,0,0,0-3.59.653L5.088,21.086a4.256,4.256,0,0,0-1.014,2.773c.019,2.177.143,5.906.757,6.422s4.309,0,6.457-.361a4.256,4.256,0,0,0,2.557-1.477L28.838,10.6a2.8,2.8,0,0,0,.034-3.626,22.128,22.128,0,0,0-2.343-2.413A23.512,23.512,0,0,0,23.658,2.606Z" transform="translate(0 0)" fill="#656988" fill-rule="evenodd"/>
    <path id="패스_97" data-name="패스 97" d="M15.782,4.769l0,0,.011.016.046.069c.041.061.1.151.181.262.157.223.38.53.643.862A8.736,8.736,0,0,0,18.4,7.734c.674.443,1.437.911,2.036,1.269.3.179.555.329.736.435l.211.123.056.032.017.01h0A1.033,1.033,0,1,1,20.428,11.4l-.021-.012-.059-.034-.218-.127c-.186-.109-.448-.263-.754-.446-.61-.365-1.4-.849-2.111-1.317a10.626,10.626,0,0,1-2.219-2.2c-.293-.37-.54-.709-.713-.955-.087-.124-.156-.225-.2-.3l-.056-.084-.015-.023,0-.007v0s0,0,.865-.565l-.865.565a1.033,1.033,0,1,1,1.731-1.129Z" transform="translate(4.672 0.991)" fill="#656988" fill-rule="evenodd"/>
  </g>
</svg>