<svg id="그룹_3" data-name="그룹 3" xmlns="http://www.w3.org/2000/svg" width="43.348" height="46.884" viewBox="0 0 43.348 46.884">
  <path id="패스_13" data-name="패스 13" d="M19.86,5.564a4.613,4.613,0,0,0-1.388,2.683,3.685,3.685,0,0,1-1.025,1.822,7.26,7.26,0,0,1-3.373,1.9A3.733,3.733,0,0,1,12,11.922a4.247,4.247,0,0,0-2.829-.137A5.674,5.674,0,0,0,6.24,14.562c-1.2,2.057-1.294,3.487-1.041,4.464a4.585,4.585,0,0,0,1.919,2.516A3.521,3.521,0,0,1,8.3,23.109a5.608,5.608,0,0,1,.383,1.758A5.539,5.539,0,0,1,8.5,26.66a3.452,3.452,0,0,1-1.015,1.7A5.709,5.709,0,0,0,5.633,31.05a5.185,5.185,0,0,0,.616,3.885,5.091,5.091,0,0,0,3.022,2.52,5.2,5.2,0,0,0,3.149-.346,3.487,3.487,0,0,1,2-.111,5.931,5.931,0,0,1,3.114,1.863,3.482,3.482,0,0,1,.849,1.82,5.106,5.106,0,0,0,1.288,3.062c.722.733,1.963,1.373,4.214,1.373s3.492-.639,4.214-1.373a5.107,5.107,0,0,0,1.288-3.062,3.481,3.481,0,0,1,.849-1.82A5.93,5.93,0,0,1,33.354,37a3.487,3.487,0,0,1,2,.111,5.2,5.2,0,0,0,3.149.346,5.091,5.091,0,0,0,3.022-2.52,4.991,4.991,0,0,0,.488-4.268,6.677,6.677,0,0,0-2.408-2.85,3.778,3.778,0,0,1-1.4-3.075,3.778,3.778,0,0,1,1.4-3.075,6.678,6.678,0,0,0,2.408-2.851,4.991,4.991,0,0,0-.488-4.268,5.091,5.091,0,0,0-3.022-2.52,5.2,5.2,0,0,0-3.149.346,3.487,3.487,0,0,1-2,.111,5.93,5.93,0,0,1-3.114-1.863,3.481,3.481,0,0,1-.849-1.82A5.107,5.107,0,0,0,28.1,5.74c-.722-.734-1.963-1.373-4.214-1.373A5.827,5.827,0,0,0,19.86,5.564Zm-2.033-2.3A8.835,8.835,0,0,1,23.889,1.3a8.6,8.6,0,0,1,6.4,2.289,8.145,8.145,0,0,1,2.148,4.857c0-.016,0-.025,0-.025a.816.816,0,0,0,.144.215A2.883,2.883,0,0,0,34,9.486a.835.835,0,0,0,.258.025,8.226,8.226,0,0,1,4.992-.46,8.147,8.147,0,0,1,4.918,3.93l.028.045.025.047a8.055,8.055,0,0,1,.659,6.847,9.7,9.7,0,0,1-3.458,4.221.442.442,0,0,0-.062.116,1.454,1.454,0,0,0,0,.967.437.437,0,0,0,.062.116,9.7,9.7,0,0,1,3.458,4.222,8.054,8.054,0,0,1-.659,6.847l-.025.047-.028.045a8.148,8.148,0,0,1-4.918,3.93,8.227,8.227,0,0,1-4.992-.46A.837.837,0,0,0,34,40a2.884,2.884,0,0,0-1.421.85.815.815,0,0,0-.144.216s0-.008,0-.025A8.145,8.145,0,0,1,30.289,45.9a8.6,8.6,0,0,1-6.4,2.289,8.6,8.6,0,0,1-6.4-2.289,8.145,8.145,0,0,1-2.148-4.857c0,.016,0,.025,0,.025a.808.808,0,0,0-.144-.216A2.884,2.884,0,0,0,13.779,40a.836.836,0,0,0-.258-.025,8.227,8.227,0,0,1-4.992.46A8.148,8.148,0,0,1,3.611,36.5l-.028-.045-.025-.047a8.249,8.249,0,0,1-.879-6.186,8.739,8.739,0,0,1,2.777-4.166.775.775,0,0,0,.09-.222,2.489,2.489,0,0,0,.07-.789,2.555,2.555,0,0,0-.163-.786.808.808,0,0,0-.127-.231,7.619,7.619,0,0,1-3.1-4.235c-.511-1.971-.126-4.237,1.362-6.782A8.677,8.677,0,0,1,8.185,8.879a7.289,7.289,0,0,1,4.825.148h0a1.233,1.233,0,0,0,.373-.043,3.915,3.915,0,0,0,1-.406,3.86,3.86,0,0,0,.859-.642,1.189,1.189,0,0,0,.221-.285A7.651,7.651,0,0,1,17.828,3.267Z" transform="translate(-2.016 -1.3)" fill="#656988" fill-rule="evenodd"/>
  <path id="패스_14" data-name="패스 14" d="M15.573,19.078a3.505,3.505,0,1,0-3.505-3.505A3.505,3.505,0,0,0,15.573,19.078Zm0,3.067A6.572,6.572,0,1,0,9,15.573,6.572,6.572,0,0,0,15.573,22.145Z" transform="translate(6.301 7.87)" fill="#656988" fill-rule="evenodd"/>
</svg>