<svg id="그룹_1" data-name="그룹 1" xmlns="http://www.w3.org/2000/svg" width="48.806" height="46.724" viewBox="0 0 48.806 46.724">
  <path id="패스_1" data-name="패스 1" d="M26.89,6.542a10.286,10.286,0,0,0-1.374,0A10.314,10.314,0,0,0,20.659,8.4c-1.965,1.232-4.279,3.056-7.5,5.6-4.132,3.262-5.8,4.616-6.766,6.408q-.221.408-.4.835c-.8,1.872-.837,4.017-.837,9.281v3.34A64.354,64.354,0,0,0,5.4,41.516a5.509,5.509,0,0,0,1.364,3.416A5.509,5.509,0,0,0,10.177,46.3a64.366,64.366,0,0,0,7.652.248H34.576a64.369,64.369,0,0,0,7.652-.248,5.509,5.509,0,0,0,3.416-1.364,5.509,5.509,0,0,0,1.364-3.416,64.306,64.306,0,0,0,.248-7.652v-3.34c0-5.265-.032-7.41-.837-9.281q-.183-.426-.4-.835c-.97-1.791-2.634-3.146-6.766-6.408-3.223-2.545-5.537-4.368-7.5-5.6A10.313,10.313,0,0,0,26.89,6.542ZM25.292,3.2a13.633,13.633,0,0,1,1.821,0,13.589,13.589,0,0,1,6.413,2.36c2.137,1.34,4.592,3.278,7.72,5.748l.078.062.311.245c3.72,2.936,5.987,4.725,7.325,7.2q.293.541.537,1.107c1.111,2.583,1.11,5.47,1.109,10.209q0,.2,0,.4v3.464a65.548,65.548,0,0,1-.278,7.975A8.775,8.775,0,0,1,48.013,47.3a8.775,8.775,0,0,1-5.338,2.315,65.548,65.548,0,0,1-7.975.278H17.706a65.55,65.55,0,0,1-7.975-.278A8.776,8.776,0,0,1,4.393,47.3a8.775,8.775,0,0,1-2.315-5.338A65.577,65.577,0,0,1,1.8,33.987V30.523q0-.2,0-.4c0-4.739,0-7.626,1.109-10.209q.243-.565.537-1.107c1.339-2.472,3.605-4.261,7.325-7.2l.311-.245.078-.062c3.128-2.47,5.583-4.408,7.72-5.748A13.588,13.588,0,0,1,25.292,3.2Z" transform="translate(-1.8 -3.17)" fill="#656988" fill-rule="evenodd"/>
  <path id="패스_2" data-name="패스 2" d="M13.764,18.974A8.852,8.852,0,0,1,26,27.152v1.675H8.3V27.152a8.851,8.851,0,0,1,5.465-8.178Zm3.387,2.675a5.5,5.5,0,0,0-5.084,3.4q-.088.212-.158.431H22.393q-.07-.218-.158-.431a5.5,5.5,0,0,0-5.084-3.4Z" transform="translate(7.251 17.897)" fill="#656988" fill-rule="evenodd"/>
</svg>