<svg xmlns="http://www.w3.org/2000/svg" width="14.539" height="28" viewBox="0 0 14.539 28">
  <path id="패스_106" data-name="패스 106" d="M9.852,7.352a1.885,1.885,0,0,1,2.665,0L11.35,8.519l1.167-1.167.124.124.345.347c.3.3.72.728,1.228,1.246,1.015,1.036,2.37,2.434,3.728,3.876s2.728,2.94,3.771,4.179c.519.616.982,1.2,1.326,1.692a6.98,6.98,0,0,1,.469.761,2.423,2.423,0,0,1,0,2.445,6.98,6.98,0,0,1-.469.761c-.344.493-.807,1.076-1.326,1.692-1.044,1.239-2.418,2.741-3.771,4.179s-2.713,2.84-3.728,3.876c-.508.519-.931.947-1.228,1.246l-.345.347-.121.122,0,0-1.333-1.332L9.852,31.583l.118-.118.339-.341c.292-.295.71-.718,1.212-1.231,1-1.025,2.342-2.4,3.676-3.822s2.657-2.865,3.633-4.024c.417-.5.752-.915.994-1.247-.242-.332-.577-.752-.994-1.247-.976-1.159-2.294-2.6-3.633-4.024s-2.672-2.8-3.676-3.822c-.5-.512-.92-.936-1.212-1.23l-.339-.341-.117-.117A1.887,1.887,0,0,1,9.852,7.352ZM20.158,21.306c.019.048.026.051,0,0ZM9.852,34.248a1.885,1.885,0,0,1,0-2.665l1.333,1.333,1.333,1.332A1.885,1.885,0,0,1,9.852,34.248Z" transform="translate(-9.3 -6.8)" fill="#6d6ec7" fill-rule="evenodd"/>
</svg>