<svg xmlns="http://www.w3.org/2000/svg" width="47.788" height="45.598" viewBox="0 0 47.788 45.598">
  <path id="패스_78" data-name="패스 78" d="M3.523,20.413C2.5,22.792,2.5,25.483,2.5,30.866v3.512c0,7.114,0,10.671,2.21,12.881,2.157,2.157,5.6,2.209,12.378,2.21H35.7c6.78,0,10.221-.053,12.378-2.21,2.21-2.21,2.21-5.767,2.21-12.881V30.866c0-5.383,0-8.074-1.023-10.453q-.224-.521-.495-1.021c-1.233-2.277-3.346-3.944-7.571-7.28C34.483,6.81,31.125,4.159,27.234,3.9a12.577,12.577,0,0,0-1.68,0c-3.891.26-7.25,2.912-13.966,8.214-4.225,3.335-6.337,5-7.57,7.28Q3.747,19.891,3.523,20.413ZM35.7,49.468a9.306,9.306,0,0,0-18.612,0h3.521a5.785,5.785,0,0,1,11.57,0Z" transform="translate(-2.5 -3.87)" fill="#6d6ec7" fill-rule="evenodd"/>
</svg>