<svg xmlns="http://www.w3.org/2000/svg" width="24.376" height="27.087" viewBox="0 0 24.376 27.087">
  <path id="패스_98" data-name="패스 98" d="M22.832,2.59a2.691,2.691,0,0,0-3.438.625L17.688,5.245a.986.986,0,0,1,.365.278h0l0,0,.018.021.072.086c.063.075.157.186.275.322.237.274.573.651.964,1.064a16.7,16.7,0,0,0,2.6,2.322c.916.6,1.943,1.245,2.745,1.739.4.246.743.455.985.6l.283.171.075.045.019.011,0,0h0a1,1,0,0,1,.181.138l1.517-1.806a2.678,2.678,0,0,0,.032-3.473,21.2,21.2,0,0,0-2.245-2.311A22.514,22.514,0,0,0,22.832,2.59Zm2.531,10.552.223-.372-.223.372ZM25,13.569l-.028-.017-.287-.174c-.246-.149-.592-.36-1-.609-.809-.5-1.856-1.152-2.8-1.771a18.53,18.53,0,0,1-2.947-2.616c-.415-.439-.769-.838-1.02-1.127-.126-.145-.226-.263-.3-.345l-.08-.1-.021-.026-.006-.007,0,0h0l.765-.628-.765.628q-.031-.038-.058-.078L5.046,20.291a4.077,4.077,0,0,0-.971,2.656c.018,2.086.137,5.657.725,6.152s4.127,0,6.185-.346a4.078,4.078,0,0,0,2.449-1.415Z" transform="translate(-4.074 -2.221)" fill="#6d6ec7" fill-rule="evenodd"/>
</svg>