<svg xmlns="http://www.w3.org/2000/svg" width="37" height="30.833" viewBox="0 0 37 30.833">
  <path id="패스_171" data-name="패스 171" d="M20.507,36.382a1.542,1.542,0,0,0,0-2.18L9.264,22.958H39.458a1.542,1.542,0,0,0,0-3.083H9.264L20.507,8.632a1.542,1.542,0,0,0-2.181-2.18L4.451,20.327l-.014.016c-.03.031-.06.063-.088.1s-.029.039-.043.058-.032.041-.046.063-.028.046-.042.069-.025.04-.036.061-.023.047-.034.071-.021.044-.031.066-.017.046-.025.069-.018.048-.026.073-.012.047-.018.07-.014.051-.019.076-.009.054-.012.081-.008.045-.01.068c0,.051-.008.1-.008.152s0,.1.008.152c0,.023.007.045.01.068s.007.054.012.081.012.051.019.076.011.047.018.07.017.049.026.073.016.046.025.069.02.044.031.066.022.047.034.071.024.041.036.061.027.046.042.069.031.042.046.063.028.039.043.058c.028.034.058.067.089.1l.013.014L18.326,36.382a1.542,1.542,0,0,0,2.181,0Z" transform="translate(-4 -6)"/>
</svg>