<svg id="그룹_21" data-name="그룹 21" xmlns="http://www.w3.org/2000/svg" width="32.49" height="32.49" viewBox="0 0 32.49 32.49">
  <path id="패스_107" data-name="패스 107" d="M11.335,32.062c1.675.152,3.831.154,6.91.154s5.235,0,6.91-.154a7.866,7.866,0,0,0,3.325-.847,7.471,7.471,0,0,0,2.735-2.735,7.866,7.866,0,0,0,.847-3.325c.152-1.675.154-3.831.154-6.91s0-5.235-.154-6.91a7.866,7.866,0,0,0-.847-3.325,7.472,7.472,0,0,0-2.735-2.735,7.868,7.868,0,0,0-3.325-.847c-1.675-.152-3.831-.154-6.91-.154s-5.235,0-6.91.154a7.868,7.868,0,0,0-3.325.847A7.473,7.473,0,0,0,5.275,8.011a7.868,7.868,0,0,0-.847,3.325c-.152,1.675-.154,3.831-.154,6.91s0,5.235.154,6.91a7.868,7.868,0,0,0,.847,3.325,7.472,7.472,0,0,0,2.735,2.735A7.866,7.866,0,0,0,11.335,32.062ZM3.306,6.874C2,9.135,2,12.172,2,18.245s0,9.11,1.306,11.372a9.749,9.749,0,0,0,3.568,3.568c2.262,1.306,5.3,1.306,11.372,1.306s9.11,0,11.372-1.306a9.75,9.75,0,0,0,3.568-3.568c1.306-2.262,1.306-5.3,1.306-11.372s0-9.11-1.306-11.372a9.749,9.749,0,0,0-3.568-3.568C27.355,2,24.318,2,18.245,2S9.135,2,6.874,3.306A9.747,9.747,0,0,0,3.306,6.874Z" transform="translate(-2 -2)" fill="#6d6ec7" fill-rule="evenodd"/>
  <path id="패스_108" data-name="패스 108" d="M12.925,22.442,22.288,11.3a.766.766,0,0,0,.053-1.019,14.054,14.054,0,0,0-1.135-1.105A15,15,0,0,0,19.852,8.2a.783.783,0,0,0-1.019.225L9.483,19.549a2.342,2.342,0,0,0-.571,1.69c.061.738.143,1.536.249,2.188.66-.008,1.461-.064,2.2-.132A2.343,2.343,0,0,0,12.925,22.442ZM21.1,6.294a3.053,3.053,0,0,0-4.006.664L7.742,18.086a4.615,4.615,0,0,0-1.1,3.339c.131,1.6.38,3.694.8,4.046s2.522.236,4.123.089a4.616,4.616,0,0,0,3.1-1.656l9.363-11.143A3.036,3.036,0,0,0,24,8.725a16.191,16.191,0,0,0-1.332-1.292A17.162,17.162,0,0,0,21.1,6.294Z" transform="translate(0.892 0.384)" fill="#6d6ec7" fill-rule="evenodd"/>
  <path id="패스_109" data-name="패스 109" d="M13.71,8.437l-.974.587,0,0,0,.005.011.018.038.061c.032.051.077.123.135.21.114.173.276.412.47.672a6.907,6.907,0,0,0,1.56,1.591c.474.312,1,.632,1.405.872.2.12.377.222.5.293l.145.083.039.023.013.008s0,0,.562-.989l-.562.989a1.137,1.137,0,1,0,1.123-1.978m0,0-.011-.006-.036-.02L18,10.779c-.117-.068-.284-.165-.478-.28-.391-.232-.883-.531-1.314-.815a4.854,4.854,0,0,1-.989-1.052c-.16-.215-.3-.414-.391-.559-.047-.072-.084-.13-.109-.169L14.69,7.86l-.006-.009h0a1.137,1.137,0,0,0-1.947,1.175l.974-.587" transform="translate(4.603 1.31)" fill="#6d6ec7" fill-rule="evenodd"/>
</svg>