<svg xmlns="http://www.w3.org/2000/svg" width="283.252" height="148.652" viewBox="0 0 283.252 148.652">
  <g id="그룹_43" data-name="그룹 43" transform="translate(-1414 -356)">
    <path id="패스_139" data-name="패스 139" d="M16,3A12.014,12.014,0,0,0,4,15V27a1,1,0,0,0,1.633.774l3.033-2.482L11.7,27.774a1,1,0,0,0,1.266,0L16,25.292l3.033,2.482a1,1,0,0,0,1.267,0l3.034-2.482,3.033,2.482A1,1,0,0,0,28,27V15A12.014,12.014,0,0,0,16,3ZM12.5,16a1.5,1.5,0,1,1,1.061-.439A1.5,1.5,0,0,1,12.5,16Zm7,0a1.5,1.5,0,1,1,1.061-.439A1.5,1.5,0,0,1,19.5,16Z" transform="translate(1475 410)" fill="#c0b9e6"/>
    <path id="패스_137" data-name="패스 137" d="M29.5,17.414,17.414,29.5a2,2,0,0,1-2.828,0L2.5,17.414a2,2,0,0,1,0-2.828L14.586,2.5a2,2,0,0,1,2.828,0L29.5,14.586a2,2,0,0,1,0,2.828Z" transform="translate(1412.085 354.085)" fill="#6d6ec7"/>
    <path id="패스_140" data-name="패스 140" d="M15.708,9.665,9.665,15.707a1,1,0,0,1-1.414,0L2.208,9.665a1,1,0,0,1,0-1.414L8.25,2.207a1,1,0,0,1,1.414,0L15.708,8.25a1,1,0,0,1,0,1.414Z" transform="translate(1419.127 488.652)" fill="#404154"/>
    <path id="패스_141" data-name="패스 141" d="M18.768,11.384l-7.384,7.384a1.223,1.223,0,0,1-1.728,0L2.272,11.384a1.223,1.223,0,0,1,0-1.728L9.656,2.272a1.223,1.223,0,0,1,1.728,0l7.384,7.384a1.223,1.223,0,0,1,0,1.728Z" transform="translate(1678.127 382.254)" fill="#b8b8ee"/>
    <path id="패스_138" data-name="패스 138" d="M20.722,28H26a2,2,0,0,0,2-2V21.294a1,1,0,0,0-1.382-.924,2.906,2.906,0,0,1-1.118.221,3.092,3.092,0,0,1,0-6.182,2.906,2.906,0,0,1,1.118.221A1,1,0,0,0,28,13.706V9a2,2,0,0,0-2-2H21.473a4.591,4.591,0,0,0,.027-.5,4.5,4.5,0,1,0-9,0,4.566,4.566,0,0,0,.027.5H8A2,2,0,0,0,6,9v4.027A4.565,4.565,0,0,0,5.5,13a4.5,4.5,0,1,0,0,9,4.565,4.565,0,0,0,.5-.027V26a2,2,0,0,0,2,2h5.278" transform="matrix(0.883, -0.469, 0.469, 0.883, 1636.155, 454.247)" fill="#8383a2"/>
  </g>
</svg>