<svg xmlns="http://www.w3.org/2000/svg" width="133.743" height="137.609" viewBox="0 0 133.743 137.609">
  <g id="그룹_37" data-name="그룹 37" transform="translate(-99 -86)">
    <g id="그룹_29" data-name="그룹 29" transform="translate(99 86)">
      <path id="패스_129" data-name="패스 129" d="M218.114,212.106c-9.021.164-8.912,4.046-13.128,7.438s-8.535,4.811-16.986-.243a75.224,75.224,0,0,0-10.8-5.5h-.036c-3.47-1.359-6.067-1.82-8.1-1.638a24.378,24.378,0,0,0-10.155,3.44c-6.54,3.688-12.133,8.845-19.176,7.886-6.182-.867-9.47-4.489-12.175-7.692-1.82-2.172-3.4-4.156-5.417-4.944a7.075,7.075,0,0,0-2.772-.328,16.839,16.839,0,0,0-1.972.158c-6.546.692-16.022,3.61-18-2.851-2.548-8.378,7.977-13.383,12.315-23.7,3.816-9.063,8.681-57.025,8.681-57.025a45.5,45.5,0,0,1,90.573,0s3.876,45.317,7.152,53.082c4.247,10.125,13.4,18.151,14.517,24.5S226.34,211.985,218.114,212.106Z" transform="translate(-99 -86)" fill="#fff"/>
    </g>
    <g id="그룹_30" data-name="그룹 30" transform="translate(143.601 111.861)">
      <path id="패스_130" data-name="패스 130" d="M399.569,269.4a6.424,6.424,0,1,0-6.424-6.424A6.424,6.424,0,0,0,399.569,269.4Z" transform="translate(-393.145 -256.556)" fill="#6d6ec7"/>
    </g>
    <g id="그룹_31" data-name="그룹 31" transform="translate(146.707 114.773)">
      <path id="패스_131" data-name="패스 131" d="M415.238,278.975a1.608,1.608,0,1,0-1.608-1.608A1.608,1.608,0,0,0,415.238,278.975Z" transform="translate(-413.63 -275.76)" fill="#fff"/>
    </g>
    <g id="그룹_32" data-name="그룹 32" transform="translate(174.377 111.861)">
      <path id="패스_132" data-name="패스 132" d="M602.534,269.4a6.424,6.424,0,1,0-6.424-6.424A6.424,6.424,0,0,0,602.534,269.4Z" transform="translate(-596.11 -256.556)" fill="#6d6ec7"/>
    </g>
    <g id="그룹_33" data-name="그룹 33" transform="translate(177.489 114.773)">
      <path id="패스_133" data-name="패스 133" d="M618.242,278.975a1.608,1.608,0,1,0-1.608-1.608A1.608,1.608,0,0,0,618.242,278.975Z" transform="translate(-616.634 -275.76)" fill="#fff"/>
    </g>
    <g id="그룹_36" data-name="그룹 36" transform="translate(153.738 131.489)">
      <path id="패스_136" data-name="패스 136" d="M481.833,390.682a6.084,6.084,0,0,1,1.956-4.588c.042-.037,0-.111-.047-.09a4.711,4.711,0,0,0-2.644,3.984,22.652,22.652,0,0,1-18.389.021A4.461,4.461,0,0,0,460.065,386c-.047,0-.085.058-.042.09a5.722,5.722,0,0,1,1.951,4.472,6.094,6.094,0,0,1-1.956,4.588c-.042.037,0,.111.042.085A4.737,4.737,0,0,0,462.7,390.9a23.746,23.746,0,0,0,18.352,0,4.557,4.557,0,0,0,2.644,4.345c.053,0,.09-.053.047-.09a5.706,5.706,0,0,1-1.914-4.477Z" transform="translate(-460 -386)" fill="#c8cce8"/>
    </g>
  </g>
</svg>