<svg xmlns="http://www.w3.org/2000/svg" width="218.19" height="262.023" viewBox="0 0 218.19 262.023">
  <g id="그룹_42" data-name="그룹 42" transform="translate(-2.402)">
    <path id="패스_142" data-name="패스 142" d="M93.709,70.506,24.044,262.486a11.568,11.568,0,0,0,6.412,14.625c16.157,6.781,50.822,18.574,96.514,18.574s80.348-11.793,96.517-18.574a11.568,11.568,0,0,0,6.409-14.625L160.231,70.506Z" transform="translate(-10 -33.662)" fill="#ff97c9" opacity="0.27"/>
    <path id="패스_143" data-name="패스 143" d="M75.068,101.266a6.487,6.487,0,1,0-6.487-6.487A6.487,6.487,0,0,0,75.068,101.266Z" transform="translate(-31.596 -42.153)" fill="#738de0"/>
    <path id="패스_144" data-name="패스 144" d="M356.361,101.266a6.487,6.487,0,1,0-6.487-6.487A6.487,6.487,0,0,0,356.361,101.266Z" transform="translate(-165.894 -42.153)" fill="#738de0"/>
    <path id="패스_145" data-name="패스 145" d="M215.714,121.655a6.487,6.487,0,1,0-6.487-6.487A6.487,6.487,0,0,0,215.714,121.655Z" transform="translate(-98.744 -51.888)" fill="#738de0"/>
    <path id="패스_146" data-name="패스 146" d="M229.16,56.587c0,12.124-35.215,21.95-87.257,21.95s-86.509-9.826-86.509-21.95S89.844,34.64,141.888,34.64,229.16,44.466,229.16,56.587Z" transform="translate(-25.3 -16.538)" fill="#99adf9"/>
    <g id="그룹_38" data-name="그룹 38" transform="translate(30.11 10.089)" opacity="0.42">
      <path id="패스_147" data-name="패스 147" d="M229.175,41.256c0,12.121-35.215,21.95-87.257,21.95s-86.494-9.829-86.494-21.95,34.449-21.95,86.494-21.95S229.175,29.135,229.175,41.256Z" transform="translate(-55.425 -19.306)" fill="#fff"/>
    </g>
    <path id="패스_148" data-name="패스 148" d="M181.406,39.408a165.4,165.4,0,0,0,41.009-4.933C219.767,15.038,201.669,0,179.734,0c-21.6,0-39.486,14.591-42.55,33.605A162.91,162.91,0,0,0,181.406,39.408Z" transform="translate(-64.349)" fill="#99adf9"/>
    <path id="패스_149" data-name="패스 149" d="M270.857,355.72c.334-3.223-2.733-4.79-7.966-5.161s-8.4.744-8.735,3.967a4.8,4.8,0,0,0,.775,3.17,1.114,1.114,0,0,1,0,1.194c-.494.8-.879,1.626-.6,1.942.407.456,1.366.056,2.47-.7a1.1,1.1,0,0,1,1.069-.09,10.7,10.7,0,0,0,2.289.691,1.124,1.124,0,0,1,.9.863c.188.938.559,1.876,1.3,1.939.938.087,1.422-.669,1.607-1.779a1.113,1.113,0,0,1,.919-.937,10.485,10.485,0,0,0,1.195-.26,1.109,1.109,0,0,1,1.063.3c.894.873,1.722,1.338,2.207.938.313-.265.122-1.094-.181-1.875a1.129,1.129,0,0,1,.231-1.2A4.937,4.937,0,0,0,270.857,355.72Z" transform="translate(-120.182 -167.335)" fill="#ff97c9"/>
    <path id="패스_150" data-name="패스 150" d="M146.942,291.8c-3.614,8.129-4.377,24.236-4.912,25.3s-4.258,3-3.308,4.964c.876,1.8,6.944,4.255,8.754,3.752,2.814-.763,5.593-8.266,7.3-13.018,6.253,3.752,16.708,5.021,16.708,5.021s-1.06,7.8-1.876,9.5-3.67,3.792-3.083,5.875,6.222,3.258,8.723,3.58,6.55-13.406,7.485-18.211c16.635,1.76,36.716.481,36.716.481s2.4,8.382.053,12.121c-1.072,1.707-1.754,5.315-1.176,5.555,3.58,1.441,8.194.626,9.667-.428,1.657-1.176,7.478-28.225,3.952-38.436S221.456,281.8,209.2,278.7s-30.76-3.239-30.76-3.239Z" transform="translate(-65.01 -131.516)" fill="#fff"/>
    <path id="패스_151" data-name="패스 151" d="M267.839,275.5s-2.814,10.68,2.886,16.317,17.367,4.917,23.7-2.454C288.364,278.307,267.839,275.5,267.839,275.5Z" transform="translate(-126.396 -131.53)" fill="#1c3177"/>
    <path id="패스_152" data-name="패스 152" d="M138.461,333.755s10.773,3.886,13.618,14.259c-6.409,10.136-16.326,7.041-16.326,7.041" transform="translate(-63.666 -159.345)" fill="#1c3177"/>
    <path id="패스_153" data-name="패스 153" d="M293.1,307.738c3.311,0,5.715,1.113,7.156,3.236,1.1,1.616,4.324,5.54,7.928,3.379,4.718-2.814-2.535-12.605-2.535-12.605l-9.026-.694Z" transform="translate(-138.79 -143.733)" fill="#1c3177"/>
    <path id="패스_154" data-name="패스 154" d="M152.858,301.9s5.315,12.258,18.655,12.249c11.686,0,19.071-13.387,15.522-22.66C175.571,296.152,152.858,301.9,152.858,301.9Z" transform="translate(-71.832 -139.165)" fill="#f0f4ff"/>
    <path id="패스_155" data-name="패스 155" d="M145.812,231.3s-3.245-7.569-1.2-10.736,8.648,8.013,8.648,8.013Z" transform="translate(-67.572 -105.036)" fill="#fec272"/>
    <path id="패스_156" data-name="패스 156" d="M207.865,231.3s3.242-7.569,1.2-10.736-8.651,8.013-8.651,8.013Z" transform="translate(-94.537 -105.036)" fill="#fec272"/>
    <path id="패스_157" data-name="패스 157" d="M181.292,256.487c-1.035,12.052-5.074,22.431-24.458,20.765s-21.922-12.612-20.887-24.661,12.027-20.947,24.548-19.874S182.326,244.435,181.292,256.487Z" transform="translate(-63.665 -111.065)" fill="#fff"/>
    <path id="패스_158" data-name="패스 158" d="M146.4,233.168s-25.292,2.189-28.056,10.99c-1.816,5.8,7.544,5.486,13.587-.673C133.15,241.125,146.4,233.168,146.4,233.168Z" transform="translate(-55.244 -111.322)" fill="#fff"/>
    <path id="패스_159" data-name="패스 159" d="M186.451,233.168s25.289,2.189,28.053,10.99c1.82,5.8-7.541,5.486-13.587-.673C199.7,241.125,186.451,233.168,186.451,233.168Z" transform="translate(-87.871 -111.322)" fill="#1c3177"/>
    <path id="패스_160" data-name="패스 160" d="M148.651,277.168a3.014,3.014,0,1,0-3.014-3.014A3.014,3.014,0,0,0,148.651,277.168Z" transform="translate(-68.385 -129.451)" fill="#1c3177"/>
    <path id="패스_161" data-name="패스 161" d="M204.368,281.954a3.014,3.014,0,1,0-3.014-3.014A3.014,3.014,0,0,0,204.368,281.954Z" transform="translate(-94.986 -131.736)" fill="#1c3177"/>
    <path id="패스_162" data-name="패스 162" d="M179.522,288.818c-.334,3.9-4.589,6.719-11.1,6.162s-10-4.046-9.661-7.947,4.24-5.193,10.742-4.634S179.86,284.917,179.522,288.818Z" transform="translate(-74.642 -134.767)" fill="#ff97c9"/>
    <g id="그룹_39" data-name="그룹 39" transform="translate(87.742 149.956)">
      <path id="패스_163" data-name="패스 163" d="M168.762,288.554a1.53,1.53,0,1,0-1.648,1.327A1.5,1.5,0,0,0,168.762,288.554Z" transform="translate(-165.711 -286.96)" fill="#ff97c9"/>
    </g>
    <g id="그룹_40" data-name="그룹 40" transform="translate(98.15 150.852)">
      <path id="패스_164" data-name="패스 164" d="M188.678,290.269a1.53,1.53,0,1,0-1.648,1.327A1.5,1.5,0,0,0,188.678,290.269Z" transform="translate(-185.627 -288.675)" fill="#ff97c9"/>
    </g>
    <path id="패스_165" data-name="패스 165" d="M182.982,232.875s-4.38,8.051,5.552,13.991a15.255,15.255,0,0,0,13.865,1.3S199.664,234.163,182.982,232.875Z" transform="translate(-85.755 -111.182)" fill="#1c3177"/>
    <path id="패스_166" data-name="패스 166" d="M263.648,318.3c3.07.313,4.859,6.628,2.242,8.619s-6.994-1.426-7.263-4.308S259.752,317.894,263.648,318.3Z" transform="translate(-122.314 -151.941)" fill="#1c3177"/>
    <path id="패스_167" data-name="패스 167" d="M203.964,324.344c1.075-3.229,8.441-2.561,11.749.432s4.965,9.235,3.311,10.411-5.074-2.589-8.129-3.686S202.919,327.471,203.964,324.344Z" transform="translate(-96.163 -153.832)" fill="#1c3177"/>
    <g id="그룹_41" data-name="그룹 41" transform="translate(107.145 6.163)" opacity="0.42">
      <path id="패스_168" data-name="패스 168" d="M235.351,24.051c.985-3.9-5.472-8.9-14.422-11.158s-17-.924-17.989,2.98,5.472,8.9,14.422,11.158S234.366,27.955,235.351,24.051Z" transform="translate(-202.84 -11.794)" fill="#fff"/>
    </g>
    <path id="패스_169" data-name="패스 169" d="M358.312,154.125a4,4,0,1,0-7.418,2.987l17.191,42.7a4,4,0,0,0,7.419-2.987Z" transform="translate(-166.242 -72.388)" fill="#fec272"/>
    <path id="패스_170" data-name="패스 170" d="M19.04,334.7a4,4,0,1,0-7.393-3.049L2.705,353.335a4,4,0,1,0,7.393,3.049Z" transform="translate(0 -157.159)" fill="#fec272"/>
  </g>
</svg>