<svg id="그룹_4" data-name="그룹 4" xmlns="http://www.w3.org/2000/svg" width="35.757" height="42.189" viewBox="0 0 35.757 42.189">
  <path id="패스_15" data-name="패스 15" d="M31.069,16.6c-.181,0-.5.022-1.331.086-2.614.2-5.644.371-8.392.371-2.633,0-5.56-.157-8.138-.346-.865-.063-1.193-.086-1.378-.085a4.853,4.853,0,0,0-4.873,4.056c-.035.182-.068.465-.151,1.228-.08.734-.108,1-.112,1.205A5,5,0,0,0,11.251,28.2c.2.018.472.02,1.21.02H30.506c.812,0,1.107,0,1.326-.023a5,5,0,0,0,4.507-5.426c-.02-.218-.072-.51-.221-1.307-.135-.724-.186-.992-.234-1.167A4.842,4.842,0,0,0,31.069,16.6ZM29.61,13.643c.7-.053,1.148-.088,1.468-.087a7.884,7.884,0,0,1,7.747,5.95c.084.309.158.708.271,1.316l.033.18c.125.672.209,1.118.243,1.5a8.047,8.047,0,0,1-7.251,8.728c-.382.036-.837.036-1.52.036H12.376c-.623,0-1.038,0-1.394-.032a8.047,8.047,0,0,1-7.333-8.181c.007-.358.053-.77.121-1.389l.009-.085.01-.092c.07-.639.116-1.058.178-1.379a7.9,7.9,0,0,1,7.84-6.526c.327,0,.793.032,1.516.085l.109.008c2.544.187,5.388.338,7.915.338,2.638,0,5.581-.165,8.159-.362Z" transform="translate(-3.647 10.923)" fill="#656988" fill-rule="evenodd"/>
  <path id="패스_16" data-name="패스 16" d="M7.3,12.521a10.221,10.221,0,1,1,20.443,0v1.243a8.979,8.979,0,0,1-8.979,8.979H16.279A8.979,8.979,0,0,1,7.3,13.764ZM17.521,5.344a7.177,7.177,0,0,0-7.177,7.177v1.243A5.934,5.934,0,0,0,16.279,19.7h2.485A5.934,5.934,0,0,0,24.7,13.764V12.521A7.177,7.177,0,0,0,17.521,5.344Z" transform="translate(0.644 -2.3)" fill="#656988" fill-rule="evenodd"/>
</svg>